<svg width="437" height="416" viewBox="0 0 437 416" fill="none" xmlns="http://www.w3.org/2000/svg">
<path d="M354.639 0L286.994 28.1203L280.897 30.7576L204.669 3.34484L238.113 73.9403L207.61 147.945L284.23 115.649L361.652 145.056L326.434 71.5872L354.639 0ZM288.805 92.3102C284.714 93.2665 280.431 92.9875 276.497 91.5085C272.564 90.0295 269.158 87.4169 266.709 84.0011C264.26 80.5852 262.879 76.5196 262.739 72.3183C262.6 68.117 263.709 63.9688 265.927 60.3982C268.144 56.8275 271.37 53.9948 275.196 52.2583C279.023 50.5219 283.278 49.9595 287.424 50.6425C291.57 51.3255 295.42 53.2231 298.488 56.0954C301.556 58.9676 303.704 62.6855 304.66 66.7789C305.94 72.2678 304.989 78.0406 302.016 82.8283C299.043 87.6159 294.291 91.0265 288.805 92.3102V92.3102Z" fill="#1E1E1E"/>
<path d="M251.332 206.683L223.384 274.449L220.936 280.624L147.66 315.176L221.209 341.442L251.959 415.372L283.319 338.311L358.866 304.332L282.028 277.3L251.332 206.683ZM270.042 318.537C267.824 322.108 264.598 324.941 260.772 326.677C256.945 328.414 252.69 328.976 248.544 328.293C244.397 327.609 240.547 325.711 237.479 322.839C234.411 319.966 232.264 316.248 231.309 312.155C230.353 308.061 230.632 303.776 232.111 299.841C233.59 295.906 236.202 292.498 239.617 290.049C243.032 287.599 247.096 286.218 251.296 286.079C255.495 285.941 259.642 287.051 263.21 289.27C265.58 290.743 267.637 292.668 269.263 294.936C270.889 297.204 272.052 299.77 272.686 302.488C273.321 305.206 273.414 308.022 272.96 310.776C272.506 313.53 271.515 316.167 270.042 318.537V318.537Z" fill="#1E1E1E"/>
<path d="M117.13 153.471L80.3157 85.8938L58.4766 155.846L56.5906 162.214L0.117468 195.261C0.117468 195.947 0.0799601 196.627 0.0317383 197.308C0.117466 198.428 0.122823 199.554 0.122823 200.68C0.119441 200.861 0.0960786 201.04 0.0531666 201.216C0.0992357 201.427 0.122589 201.643 0.122823 201.859V206.598L62.2754 222.727L99.4597 293.639L123.865 214.102L196.085 173.551L117.13 153.471ZM108.868 195.652C106.977 199.406 104.015 202.514 100.358 204.584C96.7005 206.654 92.5118 207.592 88.3215 207.28C84.1311 206.968 80.1273 205.42 76.8165 202.831C73.5057 200.243 71.0365 196.73 69.7212 192.737C68.4059 188.745 68.3037 184.452 69.4273 180.401C70.551 176.35 72.8501 172.724 76.0339 169.981C79.2177 167.237 83.1432 165.5 87.314 164.989C91.4847 164.477 95.7133 165.215 99.4651 167.108C104.495 169.646 108.311 174.079 110.075 179.432C111.838 184.785 111.404 190.619 108.868 195.652V195.652Z" fill="#1E1E1E"/>
<path d="M22.6048 356.285C22.1815 316.908 21.769 277.531 21.5814 238.154C21.3921 198.38 21.3921 158.605 21.5814 118.828C21.6993 96.5323 21.8779 74.2386 22.1172 51.9468C22.1762 46.3346 17.145 40.9689 11.4013 41.2262C5.54501 41.4888 0.749632 45.9325 0.685336 51.9468C0.26027 91.5382 0.0334469 131.133 0.00487097 170.732C-0.0308489 210.452 0.129887 250.168 0.487086 289.881C0.679973 312.037 0.903222 334.172 1.15683 356.285C1.22113 361.892 6.04331 367.268 11.8728 367.005C17.7023 366.743 22.653 362.294 22.5887 356.285H22.6048Z" fill="#1E1E1E"/>
<path d="M379.628 32.3012C379.707 31.6102 379.925 30.9426 380.271 30.3393C380.623 29.8112 381.125 29.4006 381.712 29.16C382.302 28.8759 382.784 28.7955 384.59 28.7634C386.068 28.7634 386.835 28.7634 386.835 28.7634C388.179 28.8062 389.09 28.7205 390.585 28.7634C391.657 28.7634 393.462 28.908 398.027 29.1171C404.821 29.4387 422.84 29.2244 427.957 28.9724C429.294 28.9321 430.633 28.9984 431.959 29.1707C433.176 29.2887 433.829 29.4119 434.521 29.9533C435.331 30.5983 435.898 31.5 436.128 32.5102C436.29 33.4926 436.237 34.4985 435.973 35.4584C435.793 36.6004 435.385 37.6944 434.772 38.6746C434.162 39.7199 432.961 39.8485 432.329 40.0575C431.283 40.3991 430.188 40.5657 429.088 40.5507C424.265 40.4489 396.8 39.3071 394.722 39.3017C391.673 39.3017 385.158 39.4733 385.115 39.4679C384.799 39.4411 381.943 39.4197 381.825 39.3929C381.289 39.2696 380.609 39.4411 379.794 37.2059C379.558 36.3749 379.451 35.5125 379.478 34.649C379.448 33.8633 379.498 33.0766 379.628 32.3012V32.3012Z" fill="#1E1E1E"/>
<path d="M310.72 375.062C310.856 374.31 311.203 373.613 311.721 373.052C312.358 372.467 313.132 372.052 313.972 371.846C314.893 371.556 315.697 371.471 318.483 371.444C320.787 371.444 321.987 371.444 321.987 371.444C324.093 371.487 325.518 371.395 327.881 371.444C329.489 371.444 332.376 371.589 339.524 371.803C350.149 372.13 378.348 371.91 386.358 371.653C388.448 371.612 390.539 371.68 392.622 371.856C394.529 371.98 395.547 372.108 396.629 372.661C397.756 373.193 398.647 374.123 399.131 375.271C399.496 376.311 399.19 377.222 398.88 378.289C398.565 379.541 397.917 380.684 397.004 381.596C396.051 382.668 394.17 382.797 393.184 383.011C391.516 383.362 389.815 383.531 388.11 383.515C380.534 383.413 337.59 382.245 334.332 382.239C329.558 382.239 319.367 382.416 319.33 382.411C318.826 382.411 314.358 382.363 314.175 382.336C313.297 382.207 312.268 382.384 310.998 380.095C310.633 379.275 310.462 378.382 310.5 377.485C310.439 376.671 310.514 375.852 310.72 375.062V375.062Z" fill="#1E1E1E"/>
<path d="M339.01 237.854C339.131 237.117 339.441 236.425 339.91 235.844C340.47 235.271 341.17 234.855 341.94 234.637C342.771 234.348 343.489 234.268 345.996 234.235C348.07 234.235 349.147 234.235 349.147 234.235C351.044 234.278 352.324 234.187 354.44 234.235C355.909 234.235 358.486 234.38 364.915 234.6C374.474 234.922 399.839 234.702 407.045 234.445C408.925 234.407 410.805 234.475 412.676 234.648C414.391 234.772 415.312 234.9 416.282 235.452C417.326 236.018 418.127 236.947 418.533 238.063C418.859 239.103 418.586 240.014 418.308 241.081C418.038 242.31 417.457 243.449 416.62 244.388C415.763 245.46 414.075 245.589 413.185 245.803C411.69 246.156 410.157 246.326 408.62 246.307C401.805 246.205 363.174 245.036 360.249 245.036C355.962 245.036 346.789 245.208 346.725 245.203C346.275 245.176 342.256 245.155 342.096 245.128C341.303 244.999 340.376 245.176 339.235 242.887C338.903 242.058 338.75 241.169 338.785 240.277C338.744 239.462 338.82 238.647 339.01 237.854Z" fill="#1E1E1E"/>
<path d="M290.82 214.654C290.995 213.879 291.405 213.178 291.993 212.644C292.769 212.046 293.67 211.634 294.629 211.438C295.701 211.148 296.649 211.063 299.907 211.036C302.586 211.036 304.006 211.036 304.011 211.036C306.476 211.079 308.142 210.988 310.896 211.036C312.804 211.036 316.158 211.181 324.521 211.395C336.957 211.722 369.957 211.502 379.328 211.245C381.262 211.191 383.079 211.245 386.658 211.449C388.887 211.572 390.082 211.701 391.346 212.253C392.048 212.558 393.671 213.394 394.277 214.863C394.706 215.903 394.341 216.814 393.982 217.881C393.591 219.055 393.227 219.811 391.785 221.188C390.671 222.26 388.474 222.389 387.317 222.603C385.358 222.955 383.37 223.123 381.38 223.107C372.518 223.005 322.255 221.837 318.445 221.832C312.862 221.832 300.936 222.009 300.855 222.003C300.271 221.976 295.042 221.955 294.833 221.928C293.799 221.799 292.599 221.976 291.114 219.687C290.627 218.937 290.579 218.079 290.525 217.077C290.471 216.258 290.571 215.436 290.82 214.654Z" fill="#1E1E1E"/>
</svg>
