<svg width="1661" height="430" viewBox="0 0 1661 430" fill="none" xmlns="http://www.w3.org/2000/svg">
<g clip-path="url(#clip0_39_2)">
<path d="M687.439 408.489H621.349V294.025L529.674 200.181V408.489H461.456V102.779H528.254C542.935 117.477 558.451 132.881 574.804 148.99C591.157 165.1 606.198 180.03 619.929 193.781V101.358H687.439V408.489Z" fill="#1E1E1E"/>
<path d="M877.176 167.478C872.432 167.478 867.458 167.714 862.254 168.186C856.797 168.655 851.303 168.417 845.907 167.478V341.689H874.331V408.489H745V342.369H777.684V170.303L774.839 167.462C774.203 167.743 773.605 168.103 773.06 168.534C772.819 168.775 771.87 168.888 770.22 168.888C768.57 168.888 765.934 168.775 762.403 168.534L746.415 167.462V101.358H877.149L877.176 167.478Z" fill="#1E1E1E"/>
<path d="M1159.29 408.489H1093.2V294.025L1001.53 200.181V408.489H933.312V102.779H1000.11C1014.79 117.477 1030.31 132.881 1046.65 148.99C1063 165.1 1078.05 180.03 1091.78 193.781V101.358H1159.29V408.489Z" fill="#1E1E1E"/>
<path d="M1345.48 409.186H1216.14V342.369H1277.26V102.071H1345.48V409.186Z" fill="#1E1E1E"/>
<path d="M1661 305.399H1630.46V410.622H1562.22V306.096H1477.66C1476.23 322.692 1475.64 339.754 1475.88 357.282C1476.13 374.81 1476.72 392.585 1477.66 410.606H1409.43V306.804C1399.54 305.377 1389.49 305.377 1379.59 306.804V238.572H1407.99V103.492H1629V237.859C1639.63 238.813 1650.34 238.813 1660.97 237.859L1661 305.399ZM1561.51 237.859V171.032H1476.94V237.859H1561.51Z" fill="#1E1E1E"/>
<path d="M483.075 39.4681V91.7098H461.831V20.2567H489.092C497.397 20.2567 503.827 22.315 508.381 26.4318C513.471 31.0416 516.018 36.888 516.021 43.9708C516.021 51.1965 512.864 57.2858 506.548 62.2388L518.792 91.7206H496.502L486.194 68.6712V50.3013H487.871C492.332 50.3013 494.564 48.3805 494.568 44.539C494.568 41.1584 491.986 39.4663 486.82 39.4627L483.075 39.4681Z" fill="#1E1E1E"/>
<path d="M680.077 48.0554V63.9809H666.238C664.352 63.9809 663.023 64.2649 662.235 64.8224C661.448 65.3799 661.057 66.3233 661.057 67.6473C661.057 69.1482 661.458 70.1345 662.262 70.6062C663.066 71.0779 664.705 71.3138 667.181 71.3138H681.465V91.7259H664.77C656.911 91.7259 650.912 89.8498 646.772 86.0976C642.632 82.3453 640.548 76.9225 640.52 69.829V41.8267C640.52 34.9869 642.484 29.6819 646.413 25.9118C650.342 22.1417 655.863 20.2567 662.975 20.2567H681.449V40.776H667.893C664.236 40.776 662.405 41.9624 662.401 44.3353C662.401 45.7343 662.836 46.6992 663.709 47.2406C664.582 47.782 666.131 48.0554 668.365 48.0554H680.077Z" fill="#1E1E1E"/>
<path d="M830.926 40.776V91.6991H809.682V20.246H837.361C849.506 20.246 859.011 23.0029 865.876 28.5169C874.042 35.1173 878.123 44.069 878.119 55.3721C878.119 66.1893 874.631 75.0177 867.655 81.8575C860.679 88.6973 851.697 92.1172 840.71 92.1172C839.417 92.1172 837.306 92.0475 834.377 91.9081V70.9493H837.779C850.159 70.9493 856.351 65.7676 856.355 55.4043C856.355 45.6628 850.268 40.7939 838.095 40.7974L830.926 40.776Z" fill="#1E1E1E"/>
<path d="M1030.07 55.8546V74.7015H1023.95V91.7152H1002.72V46.2918C1002.72 37.4937 1005.12 30.6611 1009.91 25.7939C1014.71 20.9267 1021.45 18.4932 1030.14 18.4932C1038.51 18.4932 1044.7 20.6998 1048.71 25.1132C1052.72 29.5265 1054.71 36.3359 1054.69 45.5413V91.7098H1033.45V46.9565C1033.45 44.162 1033.12 42.2251 1032.46 41.1459C1031.79 40.0667 1030.61 39.5307 1028.9 39.5378C1025.58 39.5378 1023.92 42.0161 1023.93 46.9726V55.8707L1030.07 55.8546Z" fill="#1E1E1E"/>
<path d="M1226.33 92.4442C1224.91 100.817 1220.08 107.185 1211.87 111.548L1202.76 102.179C1205.76 99.0374 1207.49 95.8105 1207.94 92.4978C1199.29 90.4716 1192.36 86.153 1187.14 79.5419C1181.93 72.9308 1179.32 65.1566 1179.32 56.2191C1179.32 45.5735 1182.97 36.6218 1190.28 29.3639C1197.59 22.106 1206.6 18.4771 1217.31 18.4771C1227.84 18.4771 1236.63 22.0363 1243.68 29.1548C1248.56 34.0756 1252.01 40.9333 1254.03 49.7278L1231.27 51.2447C1228.73 43.4294 1223.9 39.5217 1216.78 39.5217C1212.25 39.5217 1208.51 41.0923 1205.56 44.2334C1202.61 47.3746 1201.14 51.3698 1201.14 56.2191C1201.14 60.9005 1202.58 64.7653 1205.48 67.8135C1208.38 70.8618 1212.04 72.3894 1216.47 72.3966C1220.96 72.3966 1224.55 71.053 1227.22 68.3656C1229.89 65.6783 1231.47 61.8206 1231.95 56.7927L1254.2 57.3716C1251.7 76.8082 1242.41 88.499 1226.33 92.4442Z" fill="#1E1E1E"/>
<path d="M1406.17 55.8545V74.7015H1400.05V91.7151H1378.81V46.2917C1378.81 37.4937 1381.2 30.661 1386 25.7939C1390.8 20.9267 1397.54 18.4931 1406.22 18.4931C1414.6 18.4931 1420.79 20.6998 1424.8 25.1131C1428.81 29.5264 1430.82 36.3358 1430.82 45.5413V91.7098H1409.58V46.9564C1409.58 44.1619 1409.25 42.2251 1408.59 41.1458C1407.92 40.0666 1406.74 39.5306 1405.03 39.5377C1401.71 39.5377 1400.05 42.016 1400.06 46.9725V55.8706L1406.17 55.8545ZM1410.88 0.418098H1420.11C1419.93 4.74567 1419.04 8.1566 1417.43 10.6509C1415.81 13.1453 1413.72 14.396 1411.15 14.4032C1409.51 14.4032 1407.22 13.5831 1404.29 11.9428C1402.93 11.1781 1401.97 10.7939 1401.42 10.7903C1400.27 10.7903 1399.59 11.8624 1399.38 14.0065H1389.56C1390.44 4.69027 1393.79 0.0321045 1399.61 0.0321045C1401.51 0.113442 1403.37 0.666007 1405 1.6402L1407.09 2.71227C1407.72 3.11094 1408.44 3.34501 1409.19 3.39304C1410.34 3.39304 1410.91 2.64262 1410.91 1.14173C1410.93 0.975559 1410.92 0.728997 1410.88 0.418098V0.418098Z" fill="#1E1E1E"/>
<path d="M1593.6 18.477C1603.71 18.477 1612.39 22.1595 1619.63 29.5246C1626.86 36.8897 1630.48 45.7003 1630.49 55.9564C1630.49 66.3947 1626.84 75.2589 1619.55 82.549C1612.26 89.839 1603.4 93.4858 1592.97 93.4894C1582.61 93.4894 1573.77 89.8247 1566.44 82.4954C1559.12 75.166 1555.45 66.3143 1555.45 55.9403C1555.45 45.4734 1559.14 36.6092 1566.52 29.3477C1573.89 22.0863 1582.92 18.4627 1593.6 18.477ZM1592.97 39.5216C1590.88 39.4942 1588.8 39.9099 1586.88 40.7413C1584.96 41.5727 1583.24 42.8011 1581.83 44.3459C1578.86 47.4902 1577.21 51.6503 1577.22 55.9724C1577.22 60.2945 1578.88 64.4508 1581.85 67.5883C1583.28 69.1061 1585.01 70.3153 1586.93 71.1417C1588.84 71.9681 1590.91 72.3943 1593 72.3943C1595.08 72.3943 1597.15 71.9681 1599.06 71.1417C1600.98 70.3153 1602.71 69.1061 1604.14 67.5883C1607.08 64.4229 1608.72 60.2616 1608.72 55.9403C1608.72 51.619 1607.08 47.4577 1604.14 44.2923C1602.72 42.756 1600.99 41.5371 1599.06 40.7151C1597.14 39.893 1595.06 39.4863 1592.97 39.5216V39.5216Z" fill="#1E1E1E"/>
<path d="M354.623 14.6659L286.979 42.7861L280.881 45.4234L204.653 18.0107L238.098 88.6062L207.595 162.611L284.214 130.315L361.637 159.722L326.419 86.2531L354.623 14.6659ZM288.79 106.976C284.698 107.932 280.415 107.653 276.482 106.174C272.549 104.695 269.142 102.083 266.693 98.667C264.245 95.2511 262.863 91.1855 262.724 86.9842C262.585 82.7829 263.694 78.6347 265.911 75.064C268.128 71.4934 271.354 68.6607 275.181 66.9242C279.007 65.1877 283.262 64.6254 287.408 65.3084C291.554 65.9914 295.405 67.889 298.472 70.7613C301.54 73.6335 303.688 77.3514 304.644 81.4448C305.924 86.9337 304.973 92.7065 302 97.4942C299.027 102.282 294.275 105.692 288.79 106.976V106.976Z" fill="#1E1E1E"/>
<path d="M251.316 221.349L223.369 289.115L220.92 295.29L147.645 329.842L221.194 356.108L251.943 430.037L283.303 352.977L358.851 318.998L282.012 291.966L251.316 221.349ZM270.026 333.203C267.809 336.774 264.583 339.607 260.756 341.343C256.929 343.079 252.674 343.642 248.528 342.958C244.382 342.275 240.531 340.377 237.464 337.505C234.396 334.632 232.248 330.914 231.293 326.82C230.337 322.727 230.617 318.442 232.096 314.507C233.575 310.572 236.187 307.164 239.601 304.715C243.016 302.265 247.08 300.884 251.28 300.745C255.479 300.607 259.626 301.717 263.195 303.936C265.565 305.408 267.621 307.334 269.247 309.602C270.873 311.87 272.036 314.436 272.671 317.154C273.305 319.872 273.398 322.688 272.944 325.442C272.491 328.195 271.499 330.833 270.026 333.203V333.203Z" fill="#1E1E1E"/>
<path d="M117.115 168.137L80.3001 100.56L58.4609 170.512L56.5749 176.88L0.101843 209.926C0.101843 210.613 0.0643351 211.293 0.0161133 211.974C0.101841 213.094 0.107198 214.22 0.107198 215.346C0.103816 215.526 0.0804536 215.706 0.0375416 215.882C0.0836107 216.093 0.106964 216.309 0.107198 216.525V221.264L62.2597 237.393L99.4441 308.305L123.85 228.768L196.07 188.217L117.115 168.137ZM108.853 210.318C106.961 214.072 104 217.18 100.342 219.25C96.6849 221.319 92.4962 222.258 88.3058 221.946C84.1155 221.634 80.1117 220.086 76.8009 217.497C73.49 214.909 71.0208 211.396 69.7056 207.403C68.3903 203.411 68.288 199.118 69.4117 195.067C70.5354 191.016 72.8345 187.39 76.0183 184.647C79.2021 181.903 83.1276 180.166 87.2983 179.655C91.4691 179.143 95.6977 179.881 99.4495 181.774C104.479 184.312 108.296 188.745 110.059 194.098C111.823 199.451 111.389 205.285 108.853 210.318V210.318Z" fill="#1E1E1E"/>
<path d="M22.5892 370.951C22.1659 331.574 21.7533 292.197 21.5658 252.82C21.3765 213.046 21.3765 173.271 21.5658 133.494C21.6837 111.198 21.8623 88.9047 22.1016 66.6128C22.1606 61.0006 17.1294 55.6349 11.3857 55.8922C5.52939 56.1549 0.734007 60.5986 0.669711 66.6128C0.244645 106.204 0.0178219 145.799 -0.010754 185.398C-0.0464739 225.118 0.114262 264.834 0.471461 304.547C0.664348 326.703 0.887597 348.838 1.14121 370.951C1.2055 376.558 6.02768 381.934 11.8572 381.671C17.6866 381.409 22.6374 376.96 22.5731 370.951H22.5892Z" fill="#1E1E1E"/>
<path d="M370.638 23.8963C370.758 23.1593 371.068 22.4664 371.538 21.8862C372.097 21.3117 372.797 20.8955 373.569 20.6801C374.399 20.3906 375.117 20.3049 377.625 20.2781C379.699 20.2781 380.775 20.2781 380.775 20.2781C382.672 20.3209 383.953 20.2298 386.069 20.2781C387.537 20.2781 390.114 20.4228 396.544 20.6372C406.103 20.9642 431.467 20.7444 438.674 20.4871C440.553 20.4464 442.433 20.5144 444.305 20.6908C446.02 20.8141 446.941 20.9428 447.911 21.4949C448.955 22.0605 449.755 22.9892 450.161 24.1053C450.488 25.1452 450.215 26.0565 449.936 27.1232C449.666 28.352 449.085 29.4908 448.248 30.4306C447.391 31.5026 445.703 31.6313 444.814 31.8457C443.318 32.196 441.785 32.3652 440.249 32.3495C433.434 32.2477 394.803 31.0791 391.877 31.0738C387.591 31.0738 378.418 31.2507 378.354 31.2453C377.904 31.2185 373.885 31.1971 373.724 31.1703C372.931 31.0416 372.004 31.2185 370.863 28.9296C370.532 28.1005 370.379 27.2112 370.413 26.3192C370.372 25.5049 370.448 24.689 370.638 23.8963V23.8963Z" fill="#1E1E1E"/>
<path d="M379.613 46.9672C379.691 46.2762 379.91 45.6086 380.255 45.0053C380.608 44.4772 381.11 44.0666 381.697 43.826C382.286 43.5419 382.768 43.4615 384.574 43.4294C386.053 43.4294 386.819 43.4294 386.819 43.4294C388.164 43.4723 389.075 43.3865 390.57 43.4294C391.641 43.4294 393.447 43.5741 398.012 43.7831C404.806 44.1047 422.825 43.8904 427.941 43.6384C429.279 43.5981 430.617 43.6644 431.944 43.8368C433.16 43.9547 433.814 44.078 434.505 44.6193C435.315 45.2643 435.882 46.1661 436.112 47.1762C436.274 48.1586 436.221 49.1645 435.957 50.1244C435.778 51.2664 435.369 52.3604 434.757 53.3406C434.146 54.3859 432.946 54.5145 432.314 54.7236C431.268 55.0651 430.172 55.2317 429.072 55.2167C424.25 55.1149 396.785 53.9731 394.706 53.9677C391.657 53.9677 385.142 54.1393 385.099 54.1339C384.783 54.1071 381.927 54.0857 381.809 54.0589C381.274 53.9356 380.593 54.1071 379.779 51.8719C379.542 51.041 379.436 50.1785 379.463 49.315C379.433 48.5293 379.483 47.7426 379.613 46.9672V46.9672Z" fill="#1E1E1E"/>
<path d="M310.704 389.728C310.84 388.976 311.188 388.279 311.706 387.718C312.343 387.133 313.117 386.718 313.956 386.512C314.878 386.222 315.681 386.136 318.468 386.11C320.772 386.11 321.972 386.11 321.972 386.11C324.077 386.152 325.503 386.061 327.865 386.11C329.473 386.11 332.361 386.254 339.508 386.469C350.133 386.796 378.332 386.576 386.342 386.319C388.432 386.278 390.523 386.346 392.606 386.522C394.513 386.646 395.531 386.774 396.614 387.326C397.74 387.859 398.631 388.789 399.116 389.937C399.48 390.977 399.175 391.888 398.864 392.955C398.549 394.207 397.901 395.35 396.989 396.262C396.035 397.334 394.154 397.463 393.168 397.677C391.5 398.028 389.799 398.197 388.095 398.181C380.518 398.079 337.574 396.911 334.317 396.905C329.543 396.905 319.352 397.082 319.314 397.077C318.811 397.077 314.342 397.029 314.16 397.002C313.281 396.873 312.252 397.05 310.983 394.761C310.617 393.941 310.447 393.048 310.484 392.151C310.424 391.336 310.498 390.518 310.704 389.728V389.728Z" fill="#1E1E1E"/>
<path d="M338.994 252.52C339.116 251.783 339.426 251.091 339.894 250.509C340.454 249.937 341.154 249.521 341.925 249.303C342.755 249.014 343.473 248.934 345.981 248.901C348.054 248.901 349.131 248.901 349.131 248.901C351.028 248.944 352.308 248.853 354.425 248.901C355.893 248.901 358.47 249.046 364.9 249.266C374.458 249.588 399.823 249.368 407.029 249.11C408.909 249.072 410.789 249.14 412.661 249.314C414.375 249.437 415.297 249.566 416.267 250.118C417.311 250.684 418.111 251.612 418.517 252.729C418.844 253.769 418.571 254.68 418.292 255.747C418.023 256.976 417.441 258.115 416.604 259.054C415.747 260.126 414.059 260.255 413.17 260.469C411.674 260.822 410.141 260.991 408.605 260.973C401.789 260.871 363.158 259.702 360.233 259.702C355.947 259.702 346.774 259.874 346.709 259.869C346.259 259.842 342.241 259.82 342.08 259.794C341.287 259.665 340.36 259.842 339.219 257.553C338.888 256.724 338.734 255.835 338.769 254.942C338.728 254.128 338.804 253.312 338.994 252.52Z" fill="#1E1E1E"/>
<path d="M290.804 229.32C290.98 228.545 291.389 227.844 291.977 227.31C292.753 226.712 293.655 226.3 294.614 226.104C295.685 225.814 296.634 225.729 299.891 225.702C302.57 225.702 303.99 225.702 303.995 225.702C306.46 225.745 308.126 225.654 310.88 225.702C312.788 225.702 316.142 225.847 324.506 226.061C336.942 226.388 369.941 226.168 379.313 225.911C381.247 225.857 383.063 225.911 386.642 226.115C388.871 226.238 390.066 226.366 391.33 226.919C392.032 227.224 393.656 228.06 394.261 229.529C394.69 230.569 394.326 231.48 393.967 232.547C393.575 233.721 393.211 234.477 391.77 235.854C390.655 236.926 388.459 237.055 387.301 237.269C385.342 237.62 383.355 237.789 381.365 237.773C372.503 237.671 322.239 236.503 318.43 236.497C312.847 236.497 300.92 236.674 300.84 236.669C300.256 236.642 295.026 236.621 294.817 236.594C293.783 236.465 292.583 236.642 291.099 234.353C290.611 233.603 290.563 232.745 290.509 231.743C290.455 230.924 290.555 230.102 290.804 229.32Z" fill="#1E1E1E"/>
</g>
<defs>
<clipPath id="clip0_39_2">
<rect width="1661" height="430" fill="white"/>
</clipPath>
</defs>
</svg>
